<svg width="158" height="34" viewBox="0 0 158 34" fill="none" xmlns="http://www.w3.org/2000/svg">
<path fill-rule="evenodd" clip-rule="evenodd" d="M156.82 26.8429C150.258 36.7041 139.864 33.8427 136.743 31.6023C135.415 32.4012 133.085 34.1522 129.979 33.95C123.364 33.5196 120.995 25.1413 120.995 25.1413C121.043 25.1748 119.024 25.7585 117.934 25.7481C117.92 28.2051 115.523 34.0744 109.056 33.9993C101.799 33.9154 100.323 24.3328 100.323 24.3328C100.323 24.3328 99.6012 25.2215 96.8552 26.1068C96.9935 24.2192 96.8924 33.7119 88.1942 33.8515C81.3178 33.9619 79.4616 24.185 79.4616 24.185C79.4616 24.185 78.2686 25.2833 75.9568 25.6642C76.1037 23.7458 75.8648 33.8837 67.1656 33.8515C61.2868 33.8299 59.2779 27.8289 59.4341 26.996C59.6335 25.9345 57.4473 34.0007 51.7369 33.8751C49.3804 33.8138 47.6235 32.3016 46.5211 30.2856C45.0453 31.7822 42.9027 33.8751 40.4991 33.8751C36.1845 33.8751 34.2824 30.6768 34.6046 21.5417C34.6321 20.4582 34.5438 20.0321 33.3286 19.87C32.5992 19.7621 31.8522 19.5579 31.0618 19.4502C30.8085 20.1995 28.6598 33.6314 21.2715 33.8863C18.7929 33.9718 17.4376 32.0688 16.3246 30.6564C14.6184 32.6569 12.3661 33.95 9.15758 33.95C3.72257 33.95 0.0195312 30.0559 0.0195312 25.2523C0.0195312 20.4485 3.72257 16.5548 9.15758 16.5548C10.1185 16.5548 10.3883 16.6769 11.2662 16.9039C9.46078 2.33511 13.7245 0.0582141 17.4543 0.0582141C21.0351 0.0582141 27.1526 7.42422 18.5448 26.1083C20.4559 31.6813 24.5759 31.3661 26.5557 19.8938C26.9586 17.5618 25.8812 14.415 27.557 13.9758C30.6204 13.1731 30.9455 15.5813 32.3818 15.9826C33.9006 16.4067 34.787 16.3653 36.2451 16.6351C38.7365 17.0664 39.7087 18.2526 39.4052 20.8945C39.0407 24.2374 38.403 29.1028 40.3472 29.6959C41.7493 30.1266 44.3091 27.5496 44.7583 26.1396C45.2073 24.7296 45.3011 24.2471 45.341 23.2129C45.4018 21.0025 45.478 19.3823 45.9033 17.7107C46.0853 17.0639 46.2928 16.6355 47.1185 16.6062C47.7979 16.5909 49.0404 16.4095 49.5874 16.7869C50.3164 17.2723 50.2253 17.7649 50.1416 19.0614C49.2938 37.5465 55.8194 28.3186 57.7651 20.9298C57.0722 12.5748 57.5479 0.211209 63.4552 0.00384801C66.5275 -0.103991 67.8857 2.07738 68.0351 3.70557C68.4577 8.30419 66.0907 15.9217 62.9777 21.0445C61.1986 31.4972 70.7566 33.564 72.285 25.2206C69.7843 24.1668 67.0817 19.9015 69.281 17.8229C70.515 16.6563 75.6518 18.3322 75.7359 21.9873C78.2556 21.3901 78.592 20.1291 78.627 20.3381C77.9343 11.9831 78.5767 0.211317 84.4845 0.00395476C87.5564 -0.103884 88.9144 2.07749 89.0638 3.70568C89.4863 8.30428 87.1193 15.9218 84.0067 21.0447C82.2274 31.4972 91.7856 33.5641 93.3137 25.2208C91.4622 24.9042 87.5539 20.3674 89.8089 17.823C91.014 16.4633 96.132 19.2909 96.705 22.1083C99.1255 21.5012 99.4543 20.2804 99.489 20.4859C98.7962 12.1312 99.4386 0.359386 105.346 0.152024C108.418 0.0441852 109.776 2.22556 109.926 3.85375C110.348 8.45235 107.981 16.07 104.868 21.1928C103.089 31.6456 112.647 33.7119 114.176 25.3686C111.631 24.9932 108.015 20.203 110.926 17.7524C112.089 16.7733 116.531 19.3149 117.571 22.2146C119.016 22.1653 119.916 21.7236 120.109 21.6791C117.802 11.8708 119.519 0.102335 125.874 0.00409857C129.309 -0.0489465 132.667 1.64992 131.193 10.9812C129.786 19.8843 124.729 23.6205 124.741 23.6777C125.035 24.7443 127.63 33.6705 134.165 28.9607C133.827 28.2818 133.488 27.5883 133.299 26.748C132.216 21.8536 134.343 16.3253 140.126 15.4318C143.439 14.9199 146.56 16.3496 147.054 19.5726C147.866 24.8465 142.492 28.6659 140.449 29.4944C139.534 29.0336 148.745 34.2692 154.211 23.7769C154.528 23.1779 154.91 23.2286 155.405 23.5374C155.755 23.7555 157.747 25.4276 156.82 26.8429ZM13.1111 23.9564C12.8329 23.2195 12.2621 21.5956 12.0603 20.8919C10.9487 20.0352 10.1552 19.896 8.72835 19.896C5.5574 19.896 3.69104 22.4944 3.69104 25.2963C3.69104 28.098 5.7243 30.6967 8.89527 30.6967C11.6433 30.6967 13.7348 29.0408 14.3729 26.6966C13.9262 25.7827 13.4832 24.9428 13.1111 23.9564ZM17.3766 3.91468C15.1485 3.91468 14.3927 8.62542 14.5394 12.6441C14.6691 16.1971 15.7893 19.3252 16.3704 20.7267C16.518 20.9024 16.4906 20.7881 16.6223 20.9743C20.4909 13.4618 18.8863 3.91468 17.3766 3.91468ZM63.7735 4.06266C60.8938 3.76995 60.9124 14.402 61.2698 16.7869C62.7655 14.6663 65.3635 4.63362 63.7735 4.06266ZM84.8021 4.06266C81.9224 3.76995 81.941 14.402 82.2987 16.7869C83.7941 14.6663 86.3924 4.63362 84.8021 4.06266ZM105.664 4.21058C102.784 3.91787 102.803 14.5499 103.161 16.935C104.656 14.8143 107.254 4.7815 105.664 4.21058ZM126.192 3.44027C121.705 4.2388 122.75 17.4972 123.432 19.8226C128.717 13.3891 128.825 3.19862 126.192 3.44027ZM143.007 20.0088C142.779 19.1634 141.638 18.7116 140.851 18.823C138.598 19.0957 136.413 21.5824 137.259 25.3682C137.447 26.2114 137.919 26.9876 137.911 26.9617C142.953 23.9639 143.381 21.6016 143.007 20.0088ZM48.0017 13.6798C47.3578 13.6799 46.7284 13.5108 46.193 13.1938C45.6576 12.8769 45.2402 12.4263 44.9937 11.8991C44.7471 11.3719 44.6827 10.7918 44.8083 10.2321C44.9337 9.67234 45.2439 9.15821 45.6991 8.75466C46.1543 8.35111 46.7344 8.07629 47.3659 7.96494C47.9973 7.85359 48.652 7.91071 49.2469 8.12911C49.8418 8.34748 50.3501 8.71732 50.7078 9.19182C51.0655 9.66632 51.2564 10.2242 51.2564 10.7948C51.2564 11.1737 51.1723 11.5488 51.0087 11.8988C50.8452 12.2488 50.6055 12.5669 50.3032 12.8348C50.0009 13.1027 49.6422 13.3152 49.2473 13.4602C48.8524 13.6052 48.4292 13.6798 48.0017 13.6798Z" fill="#0D0C22"/>
</svg>
