<svg width="143" height="34" viewBox="0 0 143 34" fill="none" xmlns="http://www.w3.org/2000/svg">
<path d="M20.1412 31.8085C18.0059 32.1408 15.8331 32.2404 13.5853 32.5058L6.72942 14.7091V33.2696C4.59411 33.4688 2.64608 33.7344 0.623047 34V0H6.31758L14.1097 19.2913V0H20.1412V31.8085ZM31.9422 12.4512C34.265 12.4512 37.824 12.3515 39.9593 12.3515V17.6639C37.2993 17.6639 34.19 17.6639 31.9422 17.7636V25.666C35.4638 25.4669 38.9853 25.201 42.5441 25.1014V30.2144L25.9479 31.3767V0H42.5441V5.31251H31.9422V12.4512ZM64.8346 5.31263H58.6158V29.7501C56.5928 29.7501 54.5698 29.7501 52.622 29.8163V5.31263H46.4032V0H64.8349L64.8346 5.31263ZM74.5749 12.086H82.7795V17.3984H74.5749V29.4513H68.6928V0H85.4393V5.31251H74.5749V12.086ZM95.1797 24.8027C98.5889 24.8689 102.035 25.1018 105.37 25.2675V30.5137C100.013 30.2146 94.6552 29.9162 89.1857 29.8163V0H95.1797V24.8027ZM110.427 30.8789C112.338 30.9787 114.361 31.0783 116.309 31.2772V0H110.427V30.8789ZM142.571 0L134.965 16.17L142.571 34C140.323 33.7344 138.075 33.3691 135.827 33.037L131.519 23.2091L127.136 32.2404C124.963 31.9081 122.865 31.8085 120.692 31.5428L128.41 15.9706L121.441 0H127.885L131.818 8.93166L136.015 0H142.571Z" fill="black"/>
</svg>
