<svg width="138" height="34" viewBox="0 0 138 34" fill="none" xmlns="http://www.w3.org/2000/svg">
<path d="M15.5408 5.42533V15.081H5.53536V5.42533H0.785156V28.4744H5.53536V19.1323H15.5408V28.4744H20.291V5.42533H15.5408Z" fill="black"/>
<path d="M35.4935 21.0233C35.4935 21.947 35.0795 22.8329 34.3425 23.4861C33.6055 24.1393 32.6059 24.5062 31.5637 24.5062C30.5215 24.5062 29.5219 24.1393 28.7849 23.4861C28.0479 22.8329 27.6339 21.947 27.6339 21.0233V11.151H23.1281V21.0233C23.1281 23.0042 24.016 24.9041 25.5964 26.3048C27.1769 27.7056 29.3204 28.4925 31.5556 28.4925C33.7907 28.4925 35.9342 27.7056 37.5147 26.3048C39.0951 24.9041 39.983 23.0042 39.983 21.0233V11.151H35.4935V21.0233Z" fill="black"/>
<path d="M68.8786 12.1685C68.8786 10.1449 70.3891 9.50339 72.0439 9.50339C73.3775 9.50339 75.1393 10.4027 76.2914 11.4939L79.2425 8.4122C77.7693 6.64649 74.7809 5.42535 72.3348 5.42535C67.4473 5.42535 63.912 7.96252 63.912 12.1685C63.912 19.9718 74.6738 17.4965 74.6738 21.8633C74.6738 23.2103 73.1983 24.4005 71.5086 24.4005C68.8437 24.4005 67.9803 23.2454 66.7561 22.0242L63.4814 25.042C65.5761 27.3214 68.1595 28.4786 71.2549 28.4786C75.8981 28.4786 79.6335 25.9104 79.6335 21.8963C79.6335 13.2328 68.8717 15.9247 68.8717 12.1685" fill="black"/>
<path d="M135.456 24.7922C132.794 24.7922 132.037 23.7711 132.037 22.2076V15.287H136.175V11.7804H132.037V7.15365L127.468 8.97093V23.0677C127.468 26.6734 130.275 28.4907 134.125 28.4907C134.729 28.5004 135.332 28.4576 135.926 28.3628L137.041 24.7262C136.538 24.7571 135.961 24.788 135.456 24.788" fill="black"/>
<path d="M52.6451 11.2674C50.4132 11.2674 48.8562 11.8408 47.3503 13.1507V5.56392H42.8375V19.6256C42.8375 24.8898 47.1316 28.4954 51.9562 28.4954C57.3092 28.4954 62.0175 24.8258 62.0175 19.8835C62.0175 15.003 57.6839 11.2695 52.6451 11.2695V11.2674ZM52.6172 24.471C51.6045 24.471 50.6146 24.2049 49.7726 23.7062C48.9305 23.2076 48.2743 22.4988 47.8867 21.6696C47.4992 20.8404 47.3978 19.928 47.5953 19.0477C47.7929 18.1674 48.2806 17.3588 48.9966 16.7241C49.7127 16.0895 50.6251 15.6573 51.6183 15.4821C52.6115 15.307 53.641 15.3969 54.5767 15.7404C55.5123 16.0839 56.3119 16.6655 56.8746 17.4118C57.4372 18.1581 57.7375 19.0354 57.7375 19.933C57.7375 21.1365 57.198 22.2908 56.2378 23.1419C55.2776 23.9929 53.9752 24.471 52.6172 24.471Z" fill="black"/>
<path d="M101.646 19.6722C101.646 14.7216 96.9468 11.0602 91.5845 11.0602C86.7598 11.0602 82.4658 14.6659 82.4658 19.93V34H86.9786V26.4029C88.4821 27.7107 90.0414 28.2862 92.2711 28.2862C97.3099 28.2862 101.643 24.5547 101.643 19.6722H101.646ZM97.3727 19.6227C97.3727 20.5202 97.0724 21.3976 96.5098 22.1439C95.9472 22.8902 95.1475 23.4718 94.2119 23.8153C93.2763 24.1588 92.2468 24.2486 91.2535 24.0735C90.2603 23.8984 89.348 23.4662 88.6319 22.8316C87.9158 22.1969 87.4281 21.3883 87.2306 20.508C87.033 19.6277 87.1344 18.7153 87.5219 17.886C87.9095 17.0568 88.5658 16.3481 89.4078 15.8494C90.2498 15.3508 91.2398 15.0846 92.2524 15.0846C93.6104 15.0846 94.9128 15.5628 95.873 16.4138C96.8332 17.2649 97.3727 18.4191 97.3727 19.6227Z" fill="black"/>
<path d="M116.179 10.9965V7.01951C116.772 6.77404 117.274 6.38429 117.627 5.89566C117.98 5.40703 118.169 4.83963 118.171 4.25956V4.16674C118.169 3.3561 117.805 2.57928 117.158 2.00607C116.511 1.43286 115.635 1.10987 114.72 1.10769H114.615C113.701 1.10987 112.824 1.43286 112.177 2.00607C111.531 2.57928 111.166 3.3561 111.164 4.16674V4.25956C111.167 4.83963 111.355 5.40703 111.708 5.89566C112.061 6.38429 112.563 6.77404 113.156 7.01951V10.9965C111.451 11.2275 109.845 11.8537 108.501 12.8117L96.18 4.31526C96.2677 4.03498 96.3146 3.74592 96.3196 3.45509C96.3205 2.77256 96.0931 2.10511 95.666 1.53714C95.2389 0.969183 94.6314 0.52622 93.9203 0.264271C93.2091 0.00232248 92.4263 -0.0668474 91.6708 0.0655087C90.9153 0.197865 90.2211 0.525802 89.6759 1.00785C89.1307 1.4899 88.759 2.10441 88.6079 2.77367C88.4568 3.44294 88.5329 4.13689 88.8268 4.76778C89.1206 5.39868 89.619 5.93817 90.2588 6.31805C90.8986 6.69793 91.6511 6.90112 92.4212 6.90194C93.0977 6.8997 93.7615 6.73963 94.346 6.43782L106.46 14.7961C105.369 16.255 104.8 17.9717 104.827 19.722C104.854 21.4722 105.476 23.1745 106.611 24.6065L102.925 27.8738C102.629 27.7903 102.321 27.7459 102.01 27.7418C101.377 27.7418 100.758 27.9082 100.232 28.2198C99.7059 28.5315 99.2957 28.9744 99.0535 29.4927C98.8113 30.011 98.7479 30.5812 98.8714 31.1314C98.9949 31.6816 99.2997 32.187 99.7472 32.5836C100.195 32.9803 100.765 33.2504 101.386 33.3599C102.007 33.4693 102.65 33.4131 103.235 33.1985C103.819 32.9838 104.319 32.6203 104.671 32.1538C105.023 31.6874 105.21 31.1391 105.21 30.5781C105.206 30.3028 105.156 30.0297 105.061 29.7674L108.708 26.5351C109.899 27.3411 111.281 27.8953 112.75 28.1554C114.219 28.4156 115.736 28.3748 117.185 28.0363C118.633 27.6977 119.975 27.0703 121.108 26.2019C122.242 25.3336 123.136 24.2472 123.723 23.0258C124.311 21.8043 124.575 20.4801 124.497 19.1542C124.419 17.8283 124 16.5358 123.272 15.3753C122.544 14.2148 121.527 13.217 120.298 12.4581C119.068 11.6992 117.66 11.1993 116.179 10.9965ZM114.669 24.0784C113.671 24.0784 112.695 23.8161 111.865 23.3247C111.036 22.8333 110.389 22.1349 110.007 21.3177C109.625 20.5006 109.525 19.6014 109.72 18.7339C109.915 17.8664 110.395 17.0696 111.101 16.4442C111.807 15.8187 112.706 15.3928 113.684 15.2203C114.663 15.0477 115.678 15.1363 116.6 15.4748C117.522 15.8132 118.31 16.3864 118.864 17.1218C119.419 17.8573 119.715 18.7219 119.715 19.6064C119.715 20.7924 119.183 21.9299 118.237 22.7686C117.29 23.6072 116.007 24.0784 114.669 24.0784Z" fill="black"/>
</svg>
