<svg width="171" height="34" viewBox="0 0 171 34" fill="none" xmlns="http://www.w3.org/2000/svg">
<path fill-rule="evenodd" clip-rule="evenodd" d="M139.279 10.1957C139.932 11.1935 140.145 12.3288 140.216 13.605L140.308 15.3061V27.2011L140.403 28.9039C140.592 31.6849 142.906 33.7412 146.068 33.9161L147.98 34V15.3061L148.074 13.605C148.153 12.343 148.364 11.1864 149.027 10.1814C149.702 9.15068 150.671 8.2955 151.837 7.70174C153.003 7.10798 154.325 6.79656 155.67 6.79873C157.015 6.8009 158.335 7.11659 159.499 7.7141C160.662 8.31162 161.628 9.16993 162.299 10.2029C162.952 11.2007 163.155 12.3573 163.233 13.605L163.328 15.3007V27.2011L163.423 28.9039C163.62 31.6992 165.916 33.7555 169.088 33.9161L170.999 34V13.605C170.999 9.9986 169.383 6.53984 166.507 3.98923C163.63 1.43862 159.728 0.00499462 155.659 0.00357471C153.481 0.00153908 151.328 0.411448 149.343 1.20592C147.358 2.00038 145.587 3.16112 144.149 4.61057C142.71 3.16169 140.939 2.00123 138.955 1.20653C136.97 0.411828 134.817 0.0011254 132.639 0.0017894C129.453 0.0017894 126.497 0.858573 124.048 2.33831C122.553 0.860357 119.21 0.0017894 117.291 0.0017894V34L119.21 33.9161C122.42 33.7287 124.74 31.7277 124.865 28.9039L124.968 27.2011V15.3061L125.063 13.605C125.143 12.3216 125.345 11.1935 125.999 10.1886C126.675 9.15846 127.644 8.30348 128.809 7.709C129.974 7.11451 131.295 6.80133 132.639 6.80072C133.985 6.80098 135.306 7.11478 136.472 7.71066C137.637 8.30654 138.605 9.16355 139.279 10.1957ZM7.96224 33.9179L9.88155 34H38.6512L38.5565 32.3043C38.2967 29.509 36.0632 27.467 32.8992 27.285L30.9799 27.2011H13.7202L36.7318 6.79893L36.6372 5.105C36.4881 2.28119 34.16 0.240975 30.9799 0.0856821L29.0606 0.00892911L0.291016 0.0017894L0.385672 1.70286C0.637419 4.47134 2.90314 6.55618 6.04091 6.71682L7.96224 6.80072H25.222L2.21033 27.2029L2.30499 28.9039C2.4943 31.7063 4.77613 33.7358 7.96224 33.9161V33.9179ZM109.76 4.97827C111.542 6.55675 112.955 8.43078 113.919 10.4933C114.883 12.5559 115.379 14.7666 115.379 16.9991C115.379 19.2317 114.883 21.4423 113.919 23.5049C112.955 25.5674 111.542 27.4415 109.76 29.0199C106.162 32.2071 101.282 33.9974 96.1944 33.9974C91.1067 33.9974 86.2272 32.2071 82.6283 29.0199C75.1383 22.3817 75.1383 11.6166 82.6283 4.97827C84.408 3.40032 86.521 2.14852 88.8466 1.29434C91.1722 0.44017 93.6649 0.000352371 96.1823 4.09792e-06C98.7038 -0.00154744 101.201 0.437496 103.531 1.29202C105.861 2.14654 107.978 3.39978 109.76 4.98005V4.97827ZM104.333 9.79232C106.49 11.7058 107.702 14.3003 107.702 17.0054C107.702 19.7105 106.49 22.3049 104.333 24.2184C102.174 26.1305 99.2465 27.2045 96.1944 27.2045C93.1422 27.2045 90.2149 26.1305 88.0559 24.2184C85.8985 22.3049 84.6866 19.7105 84.6866 17.0054C84.6866 14.3003 85.8985 11.7058 88.0559 9.79232C90.2149 7.88025 93.1422 6.80618 96.1944 6.80618C99.2465 6.80618 102.174 7.88025 104.333 9.79232ZM55.927 4.09792e-06C58.4445 0.000586789 60.9373 0.440686 63.2629 1.29517C65.5885 2.14965 67.7015 3.40178 69.481 4.98005C76.973 11.6166 76.973 22.3835 69.481 29.0199C65.8821 32.2071 61.0026 33.9974 55.9149 33.9974C50.8273 33.9974 45.9478 32.2071 42.3488 29.0199C34.8588 22.3817 34.8588 11.6166 42.3488 4.97827C44.1285 3.40032 46.2415 2.14852 48.5672 1.29434C50.8928 0.44017 53.3854 0.000352371 55.9028 4.09792e-06H55.927ZM64.0534 9.78875C66.2114 11.7023 67.4236 14.2971 67.4236 17.0027C67.4236 19.7082 66.2114 22.303 64.0534 24.2166C61.8944 26.1287 58.9671 27.2028 55.9149 27.2028C52.8628 27.2028 49.9355 26.1287 47.7765 24.2166C45.6191 22.3031 44.4072 19.7087 44.4072 17.0036C44.4072 14.2985 45.6191 11.704 47.7765 9.79053C49.9355 7.87846 52.8628 6.80439 55.9149 6.80439C58.9671 6.80439 61.8944 7.87846 64.0534 9.79053V9.78875Z" fill="black"/>
</svg>
