<svg width="128" height="34" viewBox="0 0 128 34" fill="none" xmlns="http://www.w3.org/2000/svg">
<path fill-rule="evenodd" clip-rule="evenodd" d="M78.974 26.589C71.5764 31.4216 60.854 34 51.6222 34C38.6778 34 27.0245 29.7567 18.2083 22.6994C17.5156 22.1444 18.1362 21.3881 18.9674 21.8202C28.4818 26.7265 40.246 29.6782 52.398 29.6782C60.5936 29.6782 69.6092 28.1753 77.899 25.0567C79.1513 24.5852 80.1986 25.7836 78.974 26.589Z" fill="black"/>
<path fill-rule="evenodd" clip-rule="evenodd" d="M82.0495 23.4705C81.1075 22.3998 75.799 22.9646 73.4162 23.2151C72.6903 23.2937 72.5795 22.7338 73.2334 22.3311C77.4613 19.6937 84.399 20.455 85.208 21.339C86.0171 22.2279 84.9975 28.3915 81.0244 31.3333C80.4148 31.7851 79.833 31.5444 80.1045 30.9453C80.9967 28.971 82.9971 24.546 82.0495 23.4705Z" fill="black"/>
<path fill-rule="evenodd" clip-rule="evenodd" d="M73.5828 3.71286V1.14922C73.5828 0.761235 73.9153 0.500942 74.3143 0.500942H87.2642C87.6798 0.500942 88.0123 0.766147 88.0123 1.14922V3.34452C88.0068 3.71286 87.6577 4.19415 87.037 4.95539L80.3265 13.4468C82.8201 13.3928 85.4522 13.7219 87.7131 14.8514C88.2229 15.1068 88.3614 15.4801 88.4002 15.8484V18.5839C88.4002 18.9572 87.9347 19.3943 87.4471 19.1684C83.4629 17.3168 78.171 17.1155 73.7657 19.188C73.3168 19.4041 72.8458 18.9719 72.8458 18.5987V16.0006C72.8458 15.5832 72.8514 14.8711 73.3224 14.2375L81.0968 4.35622H74.3309C73.9153 4.35622 73.5828 4.09593 73.5828 3.71286Z" fill="black"/>
<path fill-rule="evenodd" clip-rule="evenodd" d="M26.3433 19.7086H22.4035C22.0267 19.6841 21.7274 19.4336 21.6997 19.1144V1.19346C21.6997 0.834941 22.0377 0.55009 22.4589 0.55009H26.1327C26.5151 0.564814 26.8199 0.825115 26.8476 1.14925V3.49189H26.9196C27.8783 1.22783 29.6792 0.171928 32.1063 0.171928C34.5721 0.171928 36.1126 1.22783 37.2209 3.49189C38.174 1.22783 40.3406 0.171928 42.6624 0.171928C44.3137 0.171928 46.1202 0.776003 47.2229 2.13149C48.4697 3.63922 48.2148 5.82961 48.2148 7.74989L48.2092 19.0603C48.2092 19.4189 47.8712 19.7086 47.4501 19.7086H43.5158C43.1223 19.6841 42.8065 19.4041 42.8065 19.0603V9.56211C42.8065 8.80579 42.8841 6.9199 42.6957 6.20286C42.402 4.99963 41.5209 4.66075 40.3794 4.66075C39.4263 4.66075 38.4289 5.22554 38.0243 6.1292C37.6198 7.03286 37.6586 8.5455 37.6586 9.56211V19.0603C37.6586 19.4189 37.3206 19.7086 36.8995 19.7086H32.9652C32.5662 19.6841 32.2559 19.4041 32.2559 19.0603L32.2503 9.56211C32.2503 7.56326 32.6216 4.62146 29.8233 4.62146C26.9917 4.62146 27.1025 7.48959 27.1025 9.56211V19.0603C27.1025 19.4189 26.7645 19.7086 26.3433 19.7086Z" fill="black"/>
<path fill-rule="evenodd" clip-rule="evenodd" d="M99.1612 0.171928C105.007 0.171928 108.171 4.62146 108.171 10.2791C108.171 15.7453 104.675 20.0819 99.1612 20.0819C93.4204 20.0819 90.2952 15.6323 90.2952 10.0876C90.2952 4.5085 93.4592 0.171928 99.1612 0.171928ZM99.1945 3.83076C96.2908 3.83076 96.108 7.33734 96.108 9.52282C96.108 11.7132 96.0692 16.3887 99.1612 16.3887C102.214 16.3887 102.359 12.6169 102.359 10.3184C102.359 8.80579 102.287 6.99848 101.771 5.56441C101.328 4.31697 100.447 3.83076 99.1945 3.83076Z" fill="black"/>
<path fill-rule="evenodd" clip-rule="evenodd" d="M115.752 19.7086H111.829C111.435 19.6841 111.119 19.4041 111.119 19.0603L111.114 1.13452C111.147 0.80547 111.474 0.55009 111.873 0.55009H115.525C115.868 0.564814 116.151 0.771094 116.229 1.05103V3.79147H116.301C117.403 1.34079 118.949 0.171928 121.67 0.171928C123.438 0.171928 125.161 0.736715 126.269 2.28374C127.3 3.7178 127.3 6.1292 127.3 7.86284V19.1438C127.256 19.4582 126.929 19.7086 126.541 19.7086H122.59C122.23 19.6841 121.931 19.4483 121.892 19.1438V9.40987C121.892 7.45031 122.147 4.58217 119.426 4.58217C118.467 4.58217 117.586 5.15187 117.148 6.01624C116.594 7.11143 116.522 8.20172 116.522 9.40987V19.0603C116.517 19.4189 116.173 19.7086 115.752 19.7086Z" fill="black"/>
<path fill-rule="evenodd" clip-rule="evenodd" d="M63.2594 11.1484C63.2594 12.5088 63.2982 13.6433 62.5224 14.8514C61.8963 15.8337 60.8988 16.4377 59.7961 16.4377C58.2833 16.4377 57.3967 15.4162 57.3967 13.9085C57.3967 10.9323 60.4057 10.3921 63.2594 10.3921V11.1484ZM67.2325 19.6595C66.9721 19.8658 66.5953 19.8805 66.3016 19.743C64.9938 18.7804 64.7556 18.3335 64.0407 17.4151C61.8796 19.3697 60.3447 19.9542 57.5464 19.9542C54.2271 19.9542 51.6504 18.1419 51.6504 14.5126C51.6504 11.6788 53.3793 9.74871 55.8507 8.80576C57.9897 7.97086 60.9764 7.82352 63.2594 7.5927V7.14087C63.2594 6.31088 63.3315 5.32864 62.7773 4.61161C62.3008 3.96824 61.3809 3.70304 60.5664 3.70304C59.0647 3.70304 57.7292 4.38569 57.4023 5.80011C57.3358 6.11443 57.0754 6.42384 56.7152 6.43857L52.8972 6.07514C52.5758 6.0113 52.2156 5.78047 52.3098 5.34337C53.1854 1.23762 57.3746 0 61.1205 0C63.0378 0 65.5424 0.45183 67.0552 1.73856C68.9725 3.32487 68.7896 5.4416 68.7896 7.74495V13.1865C68.7896 14.822 69.5543 15.539 70.2747 16.423C70.524 16.7373 70.5795 17.1155 70.258 17.3512C69.4546 17.9455 68.0249 19.0505 67.238 19.6693L67.2325 19.6595Z" fill="black"/>
<path fill-rule="evenodd" clip-rule="evenodd" d="M11.609 11.1484C11.609 12.5088 11.6478 13.6433 10.872 14.8514C10.2458 15.8337 9.25394 16.4377 8.14568 16.4377C6.63291 16.4377 5.75185 15.4162 5.75185 13.9085C5.75185 10.9323 8.76076 10.3921 11.609 10.3921V11.1484ZM15.5821 19.6595C15.3216 19.8657 14.9448 19.8805 14.6511 19.743C13.3434 18.7804 13.1107 18.3335 12.3903 17.4151C10.2292 19.3697 8.69981 19.9541 5.89592 19.9541C2.58223 19.9541 0 18.1419 0 14.5126C0 11.6788 1.73442 9.7487 4.20029 8.80576C6.33922 7.97085 9.32598 7.82352 11.609 7.59269V7.14086C11.609 6.31087 11.681 5.32863 11.1324 4.61161C10.6503 3.96824 9.73049 3.70303 8.92146 3.70303C7.41978 3.70303 6.07878 4.38569 5.75185 5.80011C5.68535 6.11443 5.42491 6.42383 5.07027 6.43856L1.24679 6.07513C0.925393 6.01129 0.570751 5.78046 0.659412 5.34337C1.54048 1.23762 5.72414 0 9.47005 0C11.3873 0 13.892 0.45183 15.4048 1.73856C17.322 3.32487 17.1392 5.44159 17.1392 7.74494V13.1865C17.1392 14.822 17.9039 15.539 18.6242 16.423C18.8791 16.7373 18.9346 17.1155 18.6132 17.3512C17.8097 17.9455 16.38 19.0505 15.5932 19.6693L15.5821 19.6595Z" fill="black"/>
</svg>
