<svg width="144" height="34" viewBox="0 0 144 34" fill="none" xmlns="http://www.w3.org/2000/svg">
<path d="M50.8003 28.3986V14.0337H51.089L62.8868 28.3986H66.5994V7.30349H62.4743V21.6322H62.1855L50.3877 7.30349H46.6751V28.3986H50.8003ZM78.2734 28.7242C83.7186 28.7242 87.0599 25.6124 87.0599 20.402C87.0599 15.2277 83.7186 12.0797 78.2734 12.0797C72.8695 12.0797 69.487 15.2277 69.487 20.402C69.5282 25.6124 72.8283 28.7242 78.2734 28.7242ZM78.2734 25.6848C75.3859 25.6848 73.7358 23.7671 73.7358 20.402C73.7358 17.0731 75.3859 15.1192 78.2734 15.1192C81.161 15.1192 82.8111 17.0731 82.8111 20.402C82.8111 23.7671 81.161 25.6848 78.2734 25.6848ZM90.8138 8.49755V12.5139H87.9262V15.4086H90.8138V24.1289C90.8138 27.2407 92.4638 28.471 96.6714 28.471C97.4552 28.471 98.239 28.3986 98.8577 28.29V25.4677C98.3627 25.5039 98.0327 25.5401 97.4552 25.5401C95.7226 25.5401 94.9389 24.8526 94.9389 23.2605V15.4086H98.8577V12.5139H94.9389V8.49755H90.8138ZM101.333 28.3986H105.458V12.4054H101.333V28.3986ZM103.395 9.76397C104.757 9.76397 105.87 8.78701 105.87 7.59295C105.87 6.36271 104.757 5.38575 103.395 5.38575C102.034 5.38575 100.92 6.36271 100.92 7.59295C100.92 8.78701 102.034 9.76397 103.395 9.76397ZM116.761 28.7242C122.206 28.7242 125.547 25.6124 125.547 20.402C125.547 15.2277 122.206 12.0797 116.761 12.0797C111.357 12.0797 107.974 15.2277 107.974 20.402C107.974 25.6124 111.274 28.7242 116.761 28.7242ZM116.761 25.6848C113.873 25.6848 112.223 23.7671 112.223 20.402C112.223 17.0731 113.873 15.1192 116.761 15.1192C119.607 15.1192 121.298 17.0731 121.298 20.402C121.257 23.7671 119.607 25.6848 116.761 25.6848ZM127.981 28.3986H132.106V19.0994C132.106 16.7474 133.674 15.2639 136.107 15.2639C138.624 15.2639 139.779 16.4941 139.779 18.9185V28.3986H143.904V18.05C143.904 14.2146 141.676 12.0797 137.634 12.0797C134.911 12.0797 133.096 13.1652 132.23 14.9744H131.941V12.4054H127.94C127.981 12.4054 127.981 28.3986 127.981 28.3986Z" fill="black"/>
<path fill-rule="evenodd" clip-rule="evenodd" d="M7.12244 5.95331C8.32305 6.81174 8.75732 6.74397 11.0053 6.60843L32.1821 5.4789C32.6419 5.4789 32.2588 5.07228 32.1055 5.0271L28.5803 2.79064C27.9161 2.33883 26.9965 1.79666 25.285 1.9322L4.79784 3.26504C4.05703 3.33281 3.90376 3.67167 4.2103 3.92016L7.12244 5.95331ZM8.39969 10.3133V30.0121C8.39969 31.0739 8.98723 31.4579 10.3411 31.3902L33.6127 30.1929C34.9665 30.1251 35.1198 29.4022 35.1198 28.5438V8.98043C35.1198 8.12199 34.7366 7.64759 33.9192 7.71536L9.60031 8.98043C8.70623 9.0482 8.39969 9.45482 8.39969 10.3133ZM31.3647 11.375C31.518 11.9624 31.3647 12.5723 30.7005 12.6401L29.5765 12.8434V27.3917C28.6058 27.8435 27.7117 28.1145 26.9454 28.1145C25.7448 28.1145 25.4382 27.7757 24.5442 26.7817L17.2127 16.5934V26.4428L19.5373 26.8947C19.5373 26.8947 19.5373 28.092 17.6725 28.092L12.5124 28.363C12.3592 28.092 12.5124 27.4368 13.0233 27.3013L14.3772 26.9624V13.9503L12.5124 13.8148C12.3592 13.2274 12.7423 12.369 13.7897 12.3012L19.333 11.9624L26.9709 22.2636V13.1597L25.0295 12.9563C24.8762 12.2335 25.4893 11.6913 26.2301 11.6235L31.3647 11.375ZM3.08632 1.4578L24.4164 0.0797848C27.022 -0.123529 27.7117 0.0120139 29.3466 1.07377L36.1416 5.29818C37.2656 6.02108 37.6488 6.22439 37.6488 7.01506V30.2155C37.6488 31.6612 37.0612 32.5197 34.9665 32.6552L10.2134 33.9881C8.6296 34.0558 7.88879 33.8525 7.07135 32.9263L2.03897 27.1657C1.14489 26.104 0.761719 25.3133 0.761719 24.3871V3.76203C0.761719 2.56473 1.3748 1.59335 3.08632 1.4578Z" fill="black"/>
</svg>
